<svg width="148" height="148" viewBox="0 0 148 148" fill="none" xmlns="http://www.w3.org/2000/svg">
<path fill-rule="evenodd" clip-rule="evenodd" d="M144.422 30.9819C139.893 24.7327 129.8 17.6614 117.082 15.5967C105.065 13.6455 90.7814 16.1715 76.6293 27.7814C76.3628 27.9941 76.106 28.2079 75.859 28.4225C75.6522 28.5971 75.4454 28.7736 75.2387 28.9521C68.2035 24.4976 57.3667 19.6689 45.2942 18.1573C31.9379 16.4849 16.89 18.8677 4.00015 30.5112L3.98904 30.5212C3.35935 31.09 3 31.8989 3 32.7474V120.741C3 122.79 5.03349 124.228 6.97669 123.578C15.8363 120.614 29.8682 117.361 43.0655 117.214C56.5068 117.064 67.8156 120.13 72.9486 128.373C74.0438 130.131 76.5785 130.28 77.8699 128.66C81.3994 124.232 90.1175 118.179 101.546 115.625C112.832 113.103 126.571 114.036 140.303 123.224C142.296 124.558 145 123.148 145 120.75V32.7521C145 32.1198 144.8 31.5037 144.429 30.9917L144.422 30.9819ZM72.4894 34.3854C66.1207 30.2572 55.8889 25.5956 44.5462 24.1754C33.2033 22.7551 20.9089 24.581 10.1082 33.258C9.42377 33.8078 9.04255 34.6462 9.04255 35.5241V112.566C9.04255 114.569 10.9675 116.011 12.9053 115.503C21.6021 113.223 32.4908 111.266 42.9983 111.149C53.722 111.029 64.8239 112.827 72.4894 118.92V34.3854ZM79.6124 118.88C84.832 115.07 91.986 111.548 100.233 109.705C110.357 107.442 122.255 107.679 134.412 113.065C136.498 113.989 138.957 112.527 138.957 110.246V34.8574C138.957 34.1706 138.728 33.501 138.27 32.9894C134.18 28.4229 126.197 23.2201 116.118 21.5836C113.813 21.2094 111.394 21.0213 108.884 21.0732C115.897 22.3636 123.561 25.3212 131.57 30.6836L131.584 30.6928C132.416 31.2497 132.915 32.1847 132.915 33.1856V99.9464C132.915 101.603 131.55 102.946 129.894 102.946C124.967 102.946 112.853 103.4 101.457 106.2C95.7544 107.602 90.4044 109.55 86.254 112.203C83.2458 114.126 80.9889 116.336 79.6124 118.88Z" fill="black"/>
</svg>
