<svg width="148" height="148" viewBox="0 0 148 148" fill="none" xmlns="http://www.w3.org/2000/svg">
<path d="M63.7809 89.0096C63.7809 87.3528 62.4377 86.0096 60.7809 86.0096H12.9772C10.5092 86.0096 9.09696 83.1958 10.5717 81.217L27.8085 58.0876C28.5895 57.0397 28.6022 55.6067 27.8398 54.5451L10.4111 30.2758C8.98572 28.2909 10.4042 25.5259 12.8479 25.5259H60.7809C62.4377 25.5259 63.7809 24.1827 63.7809 22.5259V13.0799C63.7809 12.2836 64.0975 11.5199 64.661 10.9572L70.509 5.11704C71.6803 3.94737 73.5775 3.94737 74.7488 5.11704L80.5968 10.9572C81.1603 11.5199 81.4769 12.2836 81.4769 13.0799V22.5259C81.4769 24.1827 82.82 25.5259 84.4769 25.5259H117.341C118.307 25.5259 119.214 25.9912 119.778 26.7759L139.72 54.5451C140.482 55.6067 140.469 57.0397 139.688 58.0876L119.78 84.8023C119.214 85.562 118.322 86.0096 117.374 86.0096H84.4769C82.82 86.0096 81.4769 87.3528 81.4769 89.0096V124.328C81.4769 125.985 82.8295 127.302 84.4627 127.581C88.0479 128.194 91.3835 129.901 93.9898 132.504C96.5952 135.106 98.3043 138.435 98.9186 142.014C99.1989 143.647 97.8298 145 96.1729 145H49.0848C47.428 145 46.0588 143.647 46.3391 142.014C46.9534 138.435 48.6625 135.106 51.2679 132.504C53.8742 129.901 57.2098 128.194 60.7951 127.581C62.4282 127.302 63.7809 125.985 63.7809 124.328V89.0096Z" fill="black"/>
</svg>
