<svg width="148" height="148" viewBox="0 0 148 148" fill="none" xmlns="http://www.w3.org/2000/svg">
<path d="M52.6667 74C52.6667 70.0788 49.4768 66.9 45.5556 66.9C41.6343 66.9 38.4444 70.0788 38.4444 74C38.4444 77.9212 41.6343 81.1 45.5556 81.1C49.4768 81.1 52.6667 77.9212 52.6667 74ZM81.1111 74C81.1111 70.0788 77.9212 66.9 74 66.9C70.0788 66.9 66.8889 70.0788 66.8889 74C66.8889 77.9212 70.0788 81.1 74 81.1C77.9212 81.1 81.1111 77.9212 81.1111 74ZM109.556 74C109.556 70.0788 106.366 66.9 102.444 66.9C98.5232 66.9 95.3333 70.0788 95.3333 74C95.3333 77.9212 98.5232 81.1 102.444 81.1C106.366 81.1 109.556 77.9212 109.556 74ZM123.778 17.2H116.667V10.1111C116.667 6.18375 113.483 3 109.556 3C105.628 3 102.444 6.18375 102.444 10.1111V17.2H45.5556V10.1111C45.5556 6.18375 42.3718 3 38.4444 3C34.5171 3 31.3333 6.18376 31.3333 10.1111V17.2H24.2222C16.3289 17.2 10 23.59 10 31.4V130.8C10 134.566 11.4984 138.178 14.1656 140.841C16.8328 143.504 20.4503 145 24.2222 145H123.778C127.55 145 131.167 143.504 133.834 140.841C136.502 138.178 138 134.566 138 130.8V31.4C138 27.6339 136.502 24.0221 133.834 21.3591C131.167 18.6961 127.55 17.2 123.778 17.2ZM123.778 118.8C123.778 125.427 118.405 130.8 111.778 130.8H36.2222C29.5948 130.8 24.2222 125.427 24.2222 118.8V64.7C24.2222 58.0726 29.5948 52.7 36.2222 52.7H111.778C118.405 52.7 123.778 58.0726 123.778 64.7V118.8Z" fill="black"/>
</svg>
