<svg width="148" height="148" viewBox="0 0 148 148" fill="none" xmlns="http://www.w3.org/2000/svg">
<path fill-rule="evenodd" clip-rule="evenodd" d="M74 3C113.212 3.00001 145 34.7878 145 74C145 113.212 113.212 145 74 145C34.7878 145 3.00001 113.212 3 74C2.99999 34.7878 34.7878 2.99999 74 3ZM75.933 69.8116H118.646C118.646 69.8116 119.345 72.8831 119.345 78.2349C119.345 103.458 101.179 120.538 76.2591 120.538C47.8925 120.538 28.6555 97.5016 28.6555 74C28.6555 49.8003 49.1036 27.4622 75.5604 27.4622C96.3346 27.4622 107.7 40.1205 107.7 40.1205L98.8498 49.335C98.8498 49.335 90.4191 40.167 76.0262 40.167C57.3946 40.167 42.4894 54.9195 42.4894 74C42.4894 93.7786 58.1399 107.833 75.9796 107.833C89.9533 107.833 104.719 100.247 106.256 82.5164H75.933V69.8116Z" fill="black"/>
</svg>
