<svg width="148" height="148" viewBox="0 0 148 148" fill="none" xmlns="http://www.w3.org/2000/svg">
<path fill-rule="evenodd" clip-rule="evenodd" d="M74 3C113.212 3.00001 145 34.7878 145 74C145 113.212 113.212 145 74 145C34.7878 145 3 113.212 3 74C3 34.7878 34.7878 2.99999 74 3ZM64.7587 70.3844V112.782H80.9693V70.3844C80.9693 66.2278 80.6368 62.9857 79.9718 60.658C79.3067 58.3303 78.1429 56.6676 76.4802 55.6701C74.9007 54.6725 72.6562 54.1737 69.7466 54.1737H54.7829V57.9146H56.0298C59.7708 57.9146 62.14 59.0785 63.1376 61.4061C64.2183 63.6507 64.7587 66.6434 64.7587 70.3844ZM65.7562 44.572C67.3357 46.484 69.705 47.44 72.864 47.44C74.776 47.44 76.3971 46.8165 77.7272 45.5696C79.0573 44.3226 79.7224 42.6184 79.7224 40.457C79.7224 37.963 78.9326 35.76 77.3531 33.848C75.8567 31.936 73.5291 30.98 70.3701 30.98C68.458 30.98 66.837 31.6035 65.5069 32.8504C64.1767 34.0974 63.5117 35.8016 63.5117 37.963C63.5117 40.457 64.2599 42.66 65.7562 44.572Z" fill="black"/>
</svg>
