<svg width="148" height="148" viewBox="0 0 148 148" fill="none" xmlns="http://www.w3.org/2000/svg">
<path d="M74.3399 87.1123C71.737 87.1123 69.1924 86.3404 67.0281 84.8943C64.8638 83.4482 63.177 81.3928 62.181 78.988C61.1849 76.5832 60.9243 73.937 61.4321 71.384C61.9399 68.8311 63.1933 66.4861 65.0339 64.6455C66.8744 62.8049 69.2194 61.5515 71.7723 61.0437C74.3253 60.5359 76.9714 60.7965 79.3762 61.7926C81.7811 62.7887 83.8365 64.4756 85.2826 66.6398C86.7287 68.8041 87.5006 71.3486 87.5006 73.9516C87.475 77.4252 86.0771 80.7477 83.6118 83.1949C81.1465 85.642 77.8136 87.0153 74.3399 87.0152V87.1123Z" fill="black"/>
<path fill-rule="evenodd" clip-rule="evenodd" d="M45.2977 45.1036C48.519 41.8823 52.8843 40.0669 57.4398 40.0541H90.6573C95.2128 40.0669 99.5781 41.8823 102.799 45.1036C106.021 48.3248 107.836 52.6901 107.849 57.2456V90.5117C107.836 95.0628 106.019 99.423 102.796 102.637C99.5738 105.85 95.2084 107.655 90.6573 107.655H57.4398C52.8888 107.655 48.5233 105.85 45.3007 102.637C42.0781 99.423 40.2611 95.0628 40.2483 90.5117V57.2456C40.2611 52.6901 42.0765 48.3248 45.2977 45.1036ZM93.3498 47.914C94.1484 47.3803 95.0872 47.0955 96.0477 47.0955C97.3357 47.0955 98.5711 47.6072 99.4818 48.5179C100.393 49.4287 100.904 50.6639 100.904 51.9519C100.904 52.9124 100.619 53.8513 100.086 54.6499C99.5521 55.4485 98.7936 56.071 97.9062 56.4386C97.0188 56.8061 96.0425 56.9023 95.1004 56.7149C94.1584 56.5275 93.293 56.065 92.6138 55.3859C91.9347 54.7067 91.4721 53.8414 91.2847 52.8993C91.0973 51.9573 91.1936 50.9808 91.5611 50.0935C91.9287 49.2061 92.5512 48.4476 93.3498 47.914ZM74.3399 53.4577C70.2729 53.4481 66.2945 54.646 62.9089 56.8995C59.5234 59.153 56.8827 62.3608 55.3219 66.1164C53.7611 69.872 53.3502 74.0064 54.1413 77.9958C54.9324 81.9852 56.8898 85.6499 59.7657 88.5257C62.6415 91.4016 66.3062 93.359 70.2956 94.1501C74.285 94.9412 78.4195 94.5303 82.1751 92.9695C85.9307 91.4087 89.1384 88.7681 91.3919 85.3825C93.6454 81.9969 94.8433 78.0186 94.8336 73.9516C94.8208 68.5202 92.6576 63.315 88.817 59.4744C84.9764 55.6338 79.7713 53.4705 74.3399 53.4577Z" fill="black"/>
<path fill-rule="evenodd" clip-rule="evenodd" d="M145 74C145 113.212 113.212 145 74 145C34.7878 145 3 113.212 3 74C3 34.7878 34.7878 3 74 3C113.212 3 145 34.7878 145 74ZM57.4398 115.522H90.6573C97.2865 115.509 103.64 112.87 108.328 108.182C113.016 103.495 115.655 97.1409 115.668 90.5117V57.2456C115.655 50.6165 113.016 44.2625 108.328 39.5749C103.64 34.8874 97.2865 32.2482 90.6573 32.2354H57.3912C50.762 32.2482 44.4081 34.8874 39.7205 39.5749C35.033 44.2625 32.3938 50.6165 32.381 57.2456V90.5117C32.3939 97.1493 35.0396 103.511 39.7377 108.2C44.4358 112.889 50.8022 115.522 57.4398 115.522Z" fill="black"/>
</svg>
