<svg width="124" height="124" viewBox="0 0 124 124" fill="none" xmlns="http://www.w3.org/2000/svg">
<path d="M35.6294 6.74455L26.0665 0.371791C25.7882 0.186316 25.4087 0.324388 25.3081 0.643364C18.6028 21.9051 6.17153 36.0121 0.378106 40.7756C0.166851 40.9493 0.134028 41.255 0.300825 41.4717L6.53722 49.5758C6.77637 49.8866 7.28507 49.8186 7.51672 49.5022C10.1975 45.8405 21.0328 44.7438 27.2788 44.6321C27.7027 44.6245 27.9306 45.1168 27.6591 45.4424L3.78201 74.0836C3.64018 74.2537 3.62662 74.4962 3.75009 74.6801C6.16981 78.2841 10.6286 84.5214 10.6286 82.8699C10.6286 81.3788 27.7125 75.4185 39.4013 71.5867C39.9717 71.3997 39.7911 70.5175 39.1932 70.5719C29.2077 71.4799 15.1375 72.503 14.1714 71.5373C13.0477 70.414 35.9649 44.6097 47.8687 31.5103C48.0483 31.3127 48.0344 31.0163 47.8455 30.8276L40.1704 23.1555C39.9291 22.9143 39.5224 22.9803 39.3698 23.2855L30.6181 40.782C30.5276 40.9629 30.337 41.0714 30.1353 41.057L11.3189 39.7135C10.9789 39.6893 10.7603 39.3452 10.8992 39.034C15.1353 29.5436 28.8516 14.4233 35.712 7.50961C35.9343 7.28558 35.892 6.91956 35.6294 6.74455Z" fill="black"/>
<path d="M95.4303 8.49948H50.0989C49.6534 8.49948 49.4303 9.03815 49.7454 9.3531L53.705 13.3111C53.7988 13.4049 53.9259 13.4575 54.0585 13.4575H96.5743C96.8504 13.4575 97.0743 13.6814 97.0743 13.9575V28.5399C97.0743 28.816 96.8504 29.0399 96.5743 29.0399H55.2329C54.7652 29.0399 54.5535 29.6247 54.9129 29.9241L57.9638 32.4655C58.0537 32.5404 58.1669 32.5813 58.2838 32.5813H96.5743C96.8504 32.5813 97.0743 32.8052 97.0743 33.0813V49.0803C97.0743 49.3564 96.8504 49.5803 96.5743 49.5803H39.4703C39.0248 49.5803 38.8017 50.119 39.1168 50.4339L41.6593 52.9754C41.753 53.0691 41.8802 53.1217 42.0128 53.1217H75.3171C75.5933 53.1217 75.8171 53.3456 75.8171 53.6217V109.993C75.8171 110.269 75.5933 110.493 75.3171 110.493H57.1857C56.9096 110.493 56.6857 110.717 56.6857 110.993V112.276C56.6857 112.482 56.8184 112.669 57.0099 112.746C69.4403 117.697 69.4703 124.653 72.9829 123.951C75.7865 123.39 80.6701 116.315 82.8329 112.734C82.8798 112.657 82.9029 112.57 82.9029 112.48V75.9151C82.9029 75.3802 83.6691 75.19 83.9267 75.6589C88.9665 84.8325 102.852 103.294 110.358 112.901C110.65 113.276 111.504 113.098 111.813 112.737C113.449 110.826 118.292 109.139 121.944 108.165C122.454 108.029 122.488 107.18 122.003 106.973C112.936 103.098 99.3765 88.1669 93.0978 80.379C92.9379 80.1806 92.9565 79.9015 93.1452 79.7302C97.2833 75.9724 108.843 71.5911 114.831 69.6282C115.158 69.5211 115.283 69.1275 115.076 68.8535C112.138 64.9782 106.994 58.5854 106.994 60.2046C106.994 61.8571 96.7273 71.6753 91.1642 76.7764C90.9257 76.995 90.547 76.9308 90.391 76.6473L82.9648 63.1504C82.9242 63.0765 82.9029 62.9936 82.9029 62.9093V53.6217C82.9029 53.3456 83.1267 53.1217 83.4029 53.1217H122.959C123.379 53.1217 123.612 52.6367 123.35 52.3093L115.846 42.9334C115.66 42.7008 115.313 42.6815 115.102 42.8922L108.558 49.4339C108.464 49.5276 108.337 49.5803 108.204 49.5803H105.359C105.086 49.5803 104.864 49.3625 104.859 49.0903L104.166 14.4818C104.162 14.2888 104.27 14.1108 104.443 14.0245L109.181 11.6563C109.494 11.5 109.554 11.0788 109.296 10.8416L100.994 3.18123C100.788 2.99049 100.464 3.00773 100.279 3.21937L95.8065 8.32881C95.7116 8.43727 95.5745 8.49948 95.4303 8.49948Z" fill="black"/>
<path d="M64.48 70.1207C63.9753 67.5982 55.5695 62.6427 50.0647 59.7533C49.5975 59.508 49.1085 60.0761 49.4046 60.5129C52.7926 65.5109 57.88 74.4699 60.5422 79.3156C60.7233 79.6451 61.1852 79.6609 61.3826 79.341C62.8472 76.9676 64.9917 72.6783 64.48 70.1207Z" fill="black"/>
<path d="M36.6411 88.4341L0.644108 101.06C0.325112 101.171 0.206771 101.561 0.409651 101.831L6.09338 109.407C6.2526 109.619 6.54983 109.67 6.7706 109.523L37.0838 89.322C37.5731 88.9959 37.1959 88.2394 36.6411 88.4341Z" fill="black"/>
<path d="M40.7688 108.676L35.1132 101.766C34.9111 101.519 34.9888 101.148 35.2731 101.004L67.3217 84.6716C67.8456 84.4046 68.3204 85.1037 67.8792 85.4923L41.4862 108.734C41.2736 108.921 40.9482 108.895 40.7688 108.676Z" fill="black"/>
</svg>
