<svg width="237" height="259" viewBox="0 0 237 259" fill="none" xmlns="http://www.w3.org/2000/svg">
<path d="M0 227.277V82.7599C0 56.8127 29.2765 57.2052 29.2765 82.7599V204.366C29.2765 214.059 30.2254 231.151 55.7647 231.151C83.1109 231.151 92.0118 231.595 92.0118 245.075C92.0118 258.555 74.7462 259 41.9308 259C9.11538 259 0 238.73 0 227.277Z" fill="black"/>
<path d="M103.915 226.468V129.977C103.915 119.514 110.465 112.79 121.288 112.79C132.112 112.79 138.554 119.514 138.554 129.977V181.443C138.554 187.283 148.009 192.017 154.05 192.017H186.865C192.907 192.017 204.185 187.283 204.185 181.443V129.977C204.185 119.514 209.447 112.79 220.271 112.79C231.094 112.79 237 119.514 237 129.977V226.468C237 243.989 222.308 258.192 204.185 258.192H136.731C118.607 258.192 103.915 243.989 103.915 226.468Z" fill="black"/>
<path d="M135.766 74.4614C135.766 82.7349 128.828 89.4418 120.269 89.4418C111.711 89.4418 104.773 82.7349 104.773 74.4614C104.773 66.188 111.711 59.481 120.269 59.481C128.828 59.481 135.766 66.188 135.766 74.4614Z" fill="black"/>
<path d="M181.529 72.2584C163.298 35.6005 180.313 8.812 193.379 0C150.536 10.5744 148.713 49.3472 163.298 77.5456C174.965 100.104 166.032 133.942 158.74 148.923C172.413 138.642 199.759 108.916 181.529 72.2584Z" fill="black"/>
<path d="M235.309 74.4614C235.309 82.7349 228.371 89.4418 219.813 89.4418C211.255 89.4418 204.317 82.7349 204.317 74.4614C204.317 66.188 211.255 59.481 219.813 59.481C228.371 59.481 235.309 66.188 235.309 74.4614Z" fill="black"/>
</svg>
