<svg width="131" height="131" viewBox="0 0 131 131" fill="none" xmlns="http://www.w3.org/2000/svg">
<path fill-rule="evenodd" clip-rule="evenodd" d="M65.5 0C101.675 0 131 29.3253 131 65.5C131 101.675 101.675 131 65.5 131C29.3253 131 0 101.675 0 65.5C0 29.3253 29.3253 0 65.5 0ZM49.8783 92.9371H53.6053V108.242C45.2791 106.021 32.4328 100.946 27.9921 83.5006H61.9316V118.471C45.1205 118.471 19.1901 105.545 14.8287 76.2845H7.85048C9.59504 91.7476 27.5956 123.229 64.7863 124.18C102.992 125.158 121.484 89.6858 123.229 76.2052H113.872C113.872 88.4171 98.0121 118.471 66.3723 118.471V83.5006H100.47C96.4261 96.2676 89.21 104.515 74.8571 107.845V92.9371H78.6634V102.691C82.4697 101.554 91.0815 96.8702 95.0781 87.2276H70.0993V114.506C81.6768 114.506 105.942 102.691 110.065 76.2052L18.5557 76.2845C19.7452 88.3378 31.4812 111.572 58.1253 114.506V87.2276H33.4637C34.336 90.796 40.997 100.708 49.8783 102.691V92.9371ZM53.6846 37.825H49.9576V28.0714C41.0763 30.0539 34.4153 39.9661 33.543 43.5345H58.2046V16.2561C31.5605 19.1901 19.983 42.4243 18.7936 54.4776L110.303 54.5569C106.18 28.0714 81.7561 16.2561 70.1786 16.2561V43.5345H95.1574C91.1608 33.8919 82.549 29.208 78.7427 28.0714V37.825H74.9364V22.9171C89.2893 26.2476 96.5054 34.4946 100.55 47.2615H66.4516V12.2911C98.0914 12.2911 113.634 42.345 113.634 54.5569H122.991C121.246 41.0763 103.071 5.60419 64.8656 6.58171C27.6749 7.53329 9.67433 39.0145 7.92978 54.4776H14.908C19.2694 25.2167 45.1998 12.2911 62.0109 12.2911V47.2615H28.0714C32.5121 29.816 45.3584 24.7409 53.6846 22.5206V37.825ZM6.81961 67.4031C6.43899 67.7203 6.97821 71.3152 7.2954 72.8747H32.1949V67.4031C23.8951 67.271 7.20025 67.086 6.81961 67.4031ZM7.2954 58.2046C7.2954 58.3949 6.97821 61.773 6.81961 63.4383H63.6761V58.2046C44.8826 58.1253 7.2954 58.0143 7.2954 58.2046ZM67.4031 63.4383V58.2046H123.625C123.89 59.9492 124.26 63.4383 123.625 63.4383H67.4031ZM124.18 67.4031C124.244 67.7838 123.837 71.2094 123.625 72.8747H98.5672V67.4031C107.078 67.2446 124.117 67.0225 124.18 67.4031ZM94.6816 72.8747V67.4031H36.0805V72.8747H94.6816Z" fill="black"/>
</svg>
