<svg width="148" height="148" viewBox="0 0 148 148" fill="none" xmlns="http://www.w3.org/2000/svg">
<path d="M130.8 21H17.2C13.4339 21 9.8221 22.5013 7.15908 25.1737C4.49607 27.8461 3 31.4707 3 35.25V111.75C3 115.529 4.49607 119.154 7.15908 121.826C9.8221 124.499 13.4339 126 17.2 126H130.8C134.566 126 138.178 124.499 140.841 121.826C143.504 119.154 145 115.529 145 111.75V35.25C145 31.4707 143.504 27.8461 140.841 25.1737C138.178 22.5013 134.566 21 130.8 21ZM137 58.5H12V49.5H137V58.5Z" fill="black"/>
</svg>
