<svg width="148" height="148" viewBox="0 0 148 148" fill="none" xmlns="http://www.w3.org/2000/svg">
<path fill-rule="evenodd" clip-rule="evenodd" d="M145 74C145 113.212 113.212 145 74.0001 145C34.7879 145 3 113.212 3 74C3 34.7878 34.7879 3 74.0001 3C113.212 3 145 34.7878 145 74ZM108.675 65.7929H110.86V51.0782C105.308 50.6845 100.073 48.3454 96.0757 44.4725C92.0785 40.5996 89.5752 35.441 89.0062 29.9044H76.2826V91.9687C76.2199 93.8185 75.793 95.6378 75.0268 97.3226C74.2605 99.0074 73.1697 100.525 71.8166 101.788C70.4635 103.05 68.8747 104.034 67.1412 104.683C65.4076 105.331 63.5632 105.631 61.7135 105.567C59.8366 105.678 57.9568 105.405 56.1896 104.763C54.4223 104.122 52.8048 103.126 51.4366 101.836C50.0682 100.547 48.9782 98.9913 48.233 97.2652C47.4878 95.5391 47.1034 93.6788 47.1034 91.7987C47.1034 89.9186 47.4878 88.0584 48.233 86.3323C48.9782 84.6062 50.0682 83.0506 51.4366 81.7612C52.8048 80.4718 54.4223 79.4758 56.1896 78.8343C57.9568 78.1928 59.8366 77.9194 61.7135 78.0309H63.3646V64.7245H61.7135C56.3731 64.7438 51.1584 66.3462 46.7289 69.3291C42.2992 72.312 38.8536 76.5415 36.8278 81.4826C34.8018 86.4238 34.2867 91.8547 35.3474 97.0887C36.4081 102.323 38.997 107.125 42.7868 110.887C46.5765 114.65 51.3968 117.204 56.6384 118.227C61.8798 119.25 67.3069 118.696 72.2333 116.634C77.1598 114.573 81.3643 111.097 84.3154 106.646C87.2663 102.195 88.831 96.9691 88.8119 91.6288V55.0604C90.9687 58.3602 93.9149 61.0698 97.3831 62.9438C100.851 64.8179 104.732 65.7971 108.675 65.7929Z" fill="black"/>
</svg>
