<svg width="148" height="148" viewBox="0 0 148 148" fill="none" xmlns="http://www.w3.org/2000/svg">
<path fill-rule="evenodd" clip-rule="evenodd" d="M74 4C112.66 4.00001 144 35.3401 144 74C144 112.66 112.66 144 74 144C35.3401 144 4 112.66 4 74C4 35.3401 35.3401 3.99999 74 4ZM119.671 38.8199L111.411 30.067C108.555 27.0411 103.787 26.903 100.761 29.7587C98.1122 32.2584 97.6309 36.295 99.6177 39.3474L103.412 45.1763L99.4543 42.8589C94.8551 40.1658 89.0307 40.8289 85.1545 44.4869L36.7813 90.1381C36.3249 90.5688 36.0151 91.1318 35.8954 91.7479L32.5724 108.854C32.1885 110.83 33.8211 112.616 35.8234 112.411L53.6386 110.584C54.2953 110.516 54.9114 110.234 55.3915 109.781L103.594 64.2905C107.533 60.5738 108.494 54.6798 105.94 49.9045L103.412 45.1763L109.706 49.9353C112.623 52.1404 116.705 51.9175 119.364 49.408C122.373 46.5688 122.51 41.8283 119.671 38.8199Z" fill="black"/>
</svg>
