<svg width="148" height="148" viewBox="0 0 148 148" fill="none" xmlns="http://www.w3.org/2000/svg">
<path d="M145 73.8909C144.992 60.336 141.096 47.0672 133.775 35.6554C126.453 24.2435 116.012 15.1664 103.688 9.49866C91.363 3.83087 77.6711 1.80973 64.2325 3.67448C50.794 5.53923 38.1716 11.2118 27.8596 20.0206C17.5476 28.8295 9.97774 40.4058 6.04622 53.3791C2.1147 66.3525 1.98616 80.1796 5.67571 93.2237C9.36527 106.268 16.7185 117.983 26.8649 126.981C37.0113 135.98 49.526 141.886 62.9275 144V94.4142H44.9104V73.8909H62.9275V58.365C62.9275 40.6073 73.5143 30.758 89.7346 30.758C95.0556 30.8327 100.364 31.303 105.615 32.165V49.6317H96.6792C95.1555 49.429 93.6057 49.5714 92.1446 50.0484C90.6835 50.5253 89.3484 51.3246 88.2385 52.387C87.1285 53.4493 86.272 54.7476 85.7323 56.1855C85.1927 57.6235 84.9838 59.1643 85.121 60.6939V73.8909H104.789L101.633 94.4142H85.121V144C101.82 141.344 117.023 132.826 127.998 119.975C138.974 107.124 145.002 90.784 145 73.8909Z" fill="black"/>
</svg>
