<svg width="148" height="148" viewBox="0 0 148 148" fill="none" xmlns="http://www.w3.org/2000/svg">
<path fill-rule="evenodd" clip-rule="evenodd" d="M74 3C113.212 3.00001 145 34.7878 145 74C145 113.212 113.212 145 74 145C34.7878 145 3 113.212 3 74C3 34.7878 34.7878 2.99999 74 3ZM41.1849 70.3485V75.7212C41.1849 79.0349 43.8712 81.7212 47.1849 81.7212H58.3485C61.6622 81.7212 64.3485 84.4075 64.3485 87.7212V100.815C64.3485 104.129 67.0348 106.815 70.3485 106.815H78.6167C81.9304 106.815 84.6167 104.129 84.6167 100.815V87.7212C84.6167 84.4075 87.3029 81.7212 90.6167 81.7212H100.815C104.129 81.7212 106.815 79.0349 106.815 75.7212V70.3485C106.815 67.0348 104.129 64.3485 100.815 64.3485H90.6167C87.3029 64.3485 84.6167 61.6622 84.6167 58.3485V47.1849C84.6167 43.8712 81.9304 41.1849 78.6167 41.1849H70.3485C67.0348 41.1849 64.3485 43.8712 64.3485 47.1849V58.3485C64.3485 61.6622 61.6622 64.3485 58.3485 64.3485H47.1849C43.8712 64.3485 41.1849 67.0348 41.1849 70.3485Z" fill="black"/>
</svg>
