<svg width="148" height="148" viewBox="0 0 148 148" fill="none" xmlns="http://www.w3.org/2000/svg">
<path d="M78.8718 42.9966C75.8718 36.9105 78.6718 32.463 80.8218 31C73.7718 32.7556 73.4718 39.1928 75.8718 43.8744C77.7918 47.6196 76.3218 53.2375 75.1218 55.7246C77.3718 54.0178 81.8718 49.0826 78.8718 42.9966Z" fill="black"/>
<path d="M68.7912 45.8494C70.1995 45.8494 71.3412 44.7359 71.3412 43.3623C71.3412 41.9887 70.1995 40.8752 68.7912 40.8752C67.3829 40.8752 66.2412 41.9887 66.2412 43.3623C66.2412 44.7359 67.3829 45.8494 68.7912 45.8494Z" fill="black"/>
<path d="M49 68.7332V44.7401C49 40.4322 53.8176 40.4974 53.8176 44.7401V64.9294C53.8176 66.5387 53.9738 69.3763 58.1765 69.3763C62.6765 69.3763 64.1412 69.4502 64.1412 71.6882C64.1412 73.9261 61.3 74 55.9 74C50.5 74 49 70.6347 49 68.7332Z" fill="black"/>
<path d="M66.1 68.599V52.5792C66.1 50.842 67.1777 49.7258 68.9588 49.7258C70.7399 49.7258 71.8 50.842 71.8 52.5792V61.1237C71.8 62.0933 73.3559 62.8793 74.35 62.8793H79.75C80.7441 62.8793 82.6 62.0933 82.6 61.1237V52.5792C82.6 50.842 83.4659 49.7258 85.2471 49.7258C87.0282 49.7258 88 50.842 88 52.5792V68.599C88 71.5078 85.5823 73.8658 82.6 73.8658H71.5C68.5177 73.8658 66.1 71.5078 66.1 68.599Z" fill="black"/>
<path d="M85.1718 45.8494C86.5801 45.8494 87.7218 44.7359 87.7218 43.3623C87.7218 41.9887 86.5801 40.8752 85.1718 40.8752C83.7635 40.8752 82.6218 41.9887 82.6218 43.3623C82.6218 44.7359 83.7635 45.8494 85.1718 45.8494Z" fill="black"/>
<path fill-rule="evenodd" clip-rule="evenodd" d="M27.4307 6C27.4307 4.34315 28.7739 3 30.4307 3H99.5874C101.085 3 102.353 4.10433 102.559 5.58764L112.593 77.8931L135.583 78.1168C143.882 78.1168 144 84.0769 144 92.3535V111.934C144 113.506 142.786 114.811 141.219 114.926L137.81 115.175C138.707 117.561 139.156 120.096 139.156 122.631C139.156 128.564 136.793 134.253 132.586 138.448C128.379 142.643 122.674 145 116.725 145C110.776 145 105.071 142.643 100.864 138.448C96.6576 134.253 94.2943 128.564 94.2943 122.631C94.2943 120.096 94.7429 117.561 95.5654 115.175H72.0679C70.1239 132.175 55.7682 145 38.6461 145C19.9538 145 5 130.087 5 111.447C5 97.2795 13.9723 84.772 27.4307 80V6ZM38.5 10.5C36.8431 10.5 36.5 11.8431 36.5 13.5L35.5 79C51.5 77.5 67 87 71.5 105.5H90.5C93.2344 105.5 98 106 98 101.5C98 97 96.9138 94.7637 98.7069 88.1318C100.5 81.5 103.601 79.7655 103.5 79L95.5 13.5C95.3027 12.0082 94.0048 10.5 92.5 10.5H38.5ZM50.5418 99.5836C47.3869 96.4374 43.1078 94.6698 38.6461 94.6698C34.1843 94.6698 29.9053 96.4374 26.7504 99.5836C23.5955 102.73 21.823 106.997 21.823 111.447C21.823 115.896 23.5955 120.163 26.7504 123.309C29.9053 126.456 34.1843 128.223 38.6461 128.223C43.1078 128.223 47.3869 126.456 50.5418 123.309C53.6967 120.163 55.4691 115.896 55.4691 111.447C55.4691 106.997 53.6967 102.73 50.5418 99.5836ZM124.656 114.722C122.552 112.625 119.7 111.447 116.725 111.447C113.751 111.447 110.898 112.625 108.795 114.722C106.691 116.82 105.51 119.665 105.51 122.631C105.51 125.597 106.691 128.442 108.795 130.54C110.898 132.637 113.751 133.816 116.725 133.816C119.7 133.816 122.552 132.637 124.656 130.54C126.759 128.442 127.94 125.597 127.94 122.631C127.94 119.665 126.759 116.82 124.656 114.722Z" fill="black"/>
</svg>
