<svg width="148" height="148" viewBox="0 0 148 148" fill="none" xmlns="http://www.w3.org/2000/svg">
<path d="M59.6807 59.6807C59.1864 59.6807 58.7857 60.0814 58.7857 60.5756V93.0924C58.7857 93.5867 59.1864 93.9874 59.6807 93.9874H68.0336C68.5279 93.9874 68.9286 93.5867 68.9286 93.0924V60.5756C68.9286 60.0814 68.5279 59.6807 68.0336 59.6807H59.6807Z" fill="black"/>
<path d="M79.9664 59.6807C79.4721 59.6807 79.0714 60.0814 79.0714 60.5756V93.0924C79.0714 93.5867 79.4721 93.9874 79.9664 93.9874H88.3193C88.8136 93.9874 89.2143 93.5867 89.2143 93.0924V60.5756C89.2143 60.0814 88.8136 59.6807 88.3193 59.6807H79.9664Z" fill="black"/>
<path fill-rule="evenodd" clip-rule="evenodd" d="M74 3C113.212 3.00001 145 34.7878 145 74C145 113.212 113.212 145 74 145C34.7878 145 3.00001 113.212 3 74C2.99999 34.7878 34.7878 2.99999 74 3ZM58.7857 29.8487C58.7857 28.8602 59.5871 28.0588 60.5756 28.0588H87.4244C88.4129 28.0588 89.2143 28.8602 89.2143 29.8487V32.2684C89.2143 32.7627 89.615 33.1634 90.1092 33.1634H112.782C113.77 33.1634 114.571 33.9648 114.571 34.9533V41.5826C114.571 42.5712 113.77 43.3726 112.782 43.3726H110.395C109.901 43.3726 109.5 43.7732 109.5 44.2675V109.732C109.5 112.44 108.431 115.036 106.529 116.951C104.627 118.866 102.047 119.941 99.3571 119.941H48.6429C45.9528 119.941 43.3729 118.866 41.4708 116.951C39.5686 115.036 38.5 112.44 38.5 109.732V44.2675C38.5 43.7732 38.0993 43.3726 37.605 43.3726H35.2185C34.2299 43.3726 33.4286 42.5712 33.4286 41.5826V34.9533C33.4286 33.9648 34.2299 33.1634 35.2185 33.1634H57.8908C58.385 33.1634 58.7857 32.7627 58.7857 32.2684V29.8487Z" fill="black"/>
</svg>
