<svg width="148" height="148" viewBox="0 0 148 148" fill="none" xmlns="http://www.w3.org/2000/svg">
<path d="M55.7429 3C69.7311 3 83.1465 8.55682 93.0377 18.448C102.929 28.3392 108.486 41.7546 108.486 55.7429C108.486 68.8069 105.68 78.8343 97.8091 88.0846L99.6089 89.8843C99.8675 90.1429 100.171 90.352 100.505 90.5013L102.409 91.3535C103.744 91.9509 104.959 92.7873 105.993 93.8215L138.914 126.743C142.275 130.104 142.275 135.553 138.914 138.914C135.553 142.275 130.104 142.275 126.743 138.914L94.3938 106.565C92.9912 105.163 91.9582 103.434 91.3872 101.535L90.9929 100.223C90.8501 99.7486 90.5919 99.3165 90.2413 98.9658L88.5846 97.3091C79.3343 105.18 68.8069 108.486 55.7429 108.486C41.7546 108.486 28.3392 102.929 18.448 93.0377C8.55682 83.1465 3 69.7311 3 55.7429C3 41.7546 8.55682 28.3392 18.448 18.448C28.3392 8.55682 41.7546 3 55.7429 3ZM55.7429 19.2286C35.4571 19.2286 19.2286 35.4571 19.2286 55.7429C19.2286 76.0286 35.4571 92.2571 55.7429 92.2571C76.0286 92.2571 92.2571 76.0286 92.2571 55.7429C92.2571 35.4571 76.0286 19.2286 55.7429 19.2286Z" fill="black"/>
</svg>
