<svg width="148" height="148" viewBox="0 0 148 148" fill="none" xmlns="http://www.w3.org/2000/svg">
<path fill-rule="evenodd" clip-rule="evenodd" d="M74 3C113.212 3.00001 145 34.7878 145 74C145 113.212 113.212 145 74 145C34.7878 145 3 113.212 3 74C3 34.7878 34.7878 2.99999 74 3ZM50.2352 46.024C49.8148 37.8719 41.358 36.5915 35.2579 37.1083C33.486 37.2584 32.235 38.8134 32.235 40.5916C32.235 43.2135 35.0153 45.0787 37.5784 45.6308C40.9443 46.3558 43.6664 48.7897 44.1834 51.3607C44.1834 51.3607 57.9985 75.2562 56.2893 78.8952C54.5801 82.5342 51.4766 88.4633 51.4766 88.4633C47.6265 99.4512 53.384 100.504 57.678 100.436H104.391C110.914 100.436 109.822 93.2473 104.391 93.2473H70.563C57.7767 93.9881 56.2893 89.3244 62.9595 80.3736C65.1806 80.3736 67.2596 80.3784 69.2089 80.3829C85.7977 80.421 92.9861 80.4376 98.3235 77.3026C102.405 74.9053 105.404 70.6651 110.696 63.1824L110.698 63.1807C111.534 61.9984 112.427 60.7352 113.391 59.3856C121.879 47.5026 109.667 46.024 107.799 46.024H50.2352ZM64.3561 107.689C64.3561 107.689 64.3561 102.596 59.2353 102.596C54.1146 102.596 54.1146 107.689 54.1146 107.689C54.1146 107.689 54.1146 112.782 59.2353 112.782C64.3561 112.782 64.3561 107.689 64.3561 107.689ZM96.0116 102.596C101.132 102.596 101.132 107.689 101.132 107.689C101.132 107.689 101.132 112.782 96.0116 112.782C90.8909 112.782 90.8909 107.689 90.8909 107.689C90.8909 107.689 90.8909 102.596 96.0116 102.596Z" fill="black"/>
</svg>
