<svg width="148" height="148" viewBox="0 0 148 148" fill="none" xmlns="http://www.w3.org/2000/svg">
<path d="M56.25 17C26.856 17 3 36.1663 3 59.75C3 72.489 9.86219 83.8253 20.8216 91.6476C21.9328 92.4407 22.4377 93.8565 22.0074 95.1521L18.4792 105.774C18.0401 107.096 19.4831 108.25 20.6765 107.532L33.7428 99.6644C34.5075 99.2039 35.4362 99.1117 36.2849 99.3881C42.2442 101.329 48.7433 102.5 55.611 102.5C53.765 98.0113 52.7 93.2375 52.7 88.25C52.7 64.6663 74.923 45.5 102.4 45.5C103.749 45.5 105.098 45.5 106.376 45.7137C99.134 29.0413 79.538 17 56.25 17ZM34.95 34.8125C36.833 34.8125 38.6389 35.5632 39.9705 36.8994C41.302 38.2356 42.05 40.0478 42.05 41.9375C42.05 43.8272 41.302 45.6394 39.9705 46.9756C38.6389 48.3118 36.833 49.0625 34.95 49.0625C33.067 49.0625 31.2611 48.3118 29.9295 46.9756C28.598 45.6394 27.85 43.8272 27.85 41.9375C27.85 40.0478 28.598 38.2356 29.9295 36.8994C31.2611 35.5632 33.067 34.8125 34.95 34.8125ZM70.45 34.8125C72.333 34.8125 74.139 35.5632 75.4705 36.8994C76.802 38.2356 77.55 40.0478 77.55 41.9375C77.55 43.8272 76.802 45.6394 75.4705 46.9756C74.139 48.3118 72.333 49.0625 70.45 49.0625C68.567 49.0625 66.7611 48.3118 65.4295 46.9756C64.098 45.6394 63.35 43.8272 63.35 41.9375C63.35 40.0478 64.098 38.2356 65.4295 36.8994C66.7611 35.5632 68.567 34.8125 70.45 34.8125ZM102.4 52.625C78.899 52.625 59.8 68.585 59.8 88.25C59.8 107.915 78.899 123.875 102.4 123.875C106.693 123.875 110.812 123.411 114.706 122.43C115.51 122.228 116.364 122.336 117.075 122.763L127.337 128.921C128.529 129.637 129.969 128.485 129.533 127.165L127.161 119.987C126.716 118.64 127.282 117.175 128.467 116.396C138.458 109.826 145 99.6634 145 88.25C145 68.585 125.901 52.625 102.4 52.625ZM88.2 70.4375C90.083 70.4375 91.889 71.1882 93.2205 72.5244C94.552 73.8606 95.3 75.6728 95.3 77.5625C95.3 79.4522 94.552 81.2644 93.2205 82.6006C91.889 83.9368 90.083 84.6875 88.2 84.6875C86.317 84.6875 84.511 83.9368 83.1795 82.6006C81.848 81.2644 81.1 79.4522 81.1 77.5625C81.1 75.6728 81.848 73.8606 83.1795 72.5244C84.511 71.1882 86.317 70.4375 88.2 70.4375ZM116.6 70.4375C118.483 70.4375 120.289 71.1882 121.62 72.5244C122.952 73.8606 123.7 75.6728 123.7 77.5625C123.7 79.4522 122.952 81.2644 121.62 82.6006C120.289 83.9368 118.483 84.6875 116.6 84.6875C114.717 84.6875 112.911 83.9368 111.58 82.6006C110.248 81.2644 109.5 79.4522 109.5 77.5625C109.5 75.6728 110.248 73.8606 111.58 72.5244C112.911 71.1882 114.717 70.4375 116.6 70.4375Z" fill="black"/>
</svg>
