<svg width="148" height="148" viewBox="0 0 148 148" fill="none" xmlns="http://www.w3.org/2000/svg">
<path fill-rule="evenodd" clip-rule="evenodd" d="M74 3C113.212 3.00001 145 34.7878 145 74C145 113.212 113.212 145 74 145C34.7878 145 3.00001 113.212 3 74C2.99999 34.7878 34.7878 2.99999 74 3ZM107.113 40.8866C111.626 40.8866 115.317 44.5783 115.317 49.0903V98.313C115.317 102.825 111.626 106.517 107.113 106.517H41.4832C36.9711 106.517 33.2794 102.825 33.2794 98.313V49.0903C33.2794 44.5783 36.9711 40.8866 41.4832 40.8866H107.113ZM103.585 51.2955C104.602 50.6601 104.152 49.0903 102.953 49.0903H45.6439C44.445 49.0903 43.9948 50.6601 45.0115 51.2955L68.6064 66.0423C72.0889 68.2189 76.5077 68.2189 79.9902 66.0423L103.585 51.2955ZM105.324 98.313C106.312 98.313 107.113 97.5117 107.113 96.5231V59.4471C107.113 58.5098 106.083 57.9384 105.288 58.4352L79.9902 74.2461C76.5077 76.4227 72.0889 76.4227 68.6064 74.2461L43.3089 58.4352C42.5141 57.9384 41.4832 58.5098 41.4832 59.4471V96.5231C41.4832 97.5117 42.2846 98.313 43.2731 98.313H105.324Z" fill="black"/>
</svg>
