<svg width="148" height="148" viewBox="0 0 148 148" fill="none" xmlns="http://www.w3.org/2000/svg">
<path d="M87.6295 35.5374C88.2969 32.2903 89.924 29.294 92.7724 26.952C94.8729 25.225 97.6375 23.8538 101.171 23C99.0241 24.4175 96.583 27.1447 95.1691 30.9139C93.4608 35.4678 93.2516 41.5427 96.8711 48.6671C101.281 57.348 98.3412 64.9346 94.4209 70.1098C92.4608 72.6973 90.2557 74.682 88.6019 75.8992C90.647 71.7866 93.0478 63.6729 92.0783 56.5C91.7934 54.392 91.2174 52.3652 90.2557 50.5452C89.4244 48.9717 88.7399 47.3055 88.237 45.6C87.253 42.263 86.9641 38.7754 87.6295 35.5374Z" fill="black"/>
<path d="M103.952 62.3646C104.393 61.8813 104.877 61.466 105.397 61.1146C105.266 59.4102 105.116 57.8235 104.956 56.5H105.285C103.101 54.9202 101.64 52.4041 101.64 49.4496C101.64 48.0505 101.968 46.7496 102.545 45.6H102.187C101.443 42.6935 99.7461 39.0786 97.6508 35.2542C97.1778 38.5179 97.6636 42.4997 99.9915 47.0818C103.879 54.7332 102.891 61.7911 100.231 67.3148C98.6732 70.5518 96.5441 73.2754 94.4877 75.379C94.4239 79.1353 94.1164 83.8092 93.7002 87.7069H98.8077C98.9543 87.7069 99.2986 87.671 99.7874 87.5367C100.257 87.4077 100.738 87.2212 101.148 87.0066C101.335 86.9085 101.481 86.818 101.592 86.7416V69.1694C101.592 66.7515 102.214 64.27 103.952 62.3646Z" fill="black"/>
<path d="M105.709 65.9868C106.557 64.1463 108.286 63.0645 110.929 63.0645C114.857 63.0645 117 65.4527 117 69.1694V103.444C117 109.668 111.669 114.713 105.092 114.713H80.6154C74.0389 114.713 68.7077 109.668 68.7077 103.444V69.1694C68.7077 65.4527 71.0842 63.0645 75.0118 63.0645C78.9394 63.0645 81.2769 65.4527 81.2769 69.1694V87.4507C81.2769 88.7063 82.5338 89.818 84.0121 90.5C84.9762 90.9448 86.0346 91.2069 86.9 91.2069H98.8077C101 91.2069 105.092 89.5252 105.092 87.4507V69.1694C105.092 67.9542 105.296 66.8809 105.709 65.9868Z" fill="black"/>
<path d="M105.14 49.4496C105.14 47.9355 105.809 46.569 106.881 45.6C107.891 44.6883 109.258 44.1284 110.763 44.1284C112.269 44.1284 113.636 44.6883 114.646 45.6C115.718 46.569 116.387 47.9355 116.387 49.4496C116.387 52.3884 113.869 54.7708 110.763 54.7708C107.658 54.7708 105.14 52.3884 105.14 49.4496Z" fill="black"/>
<path d="M88.5404 56.5C88.2855 54.919 87.8362 53.4578 87.1611 52.1802C86.0799 50.1339 85.2002 47.9082 84.6078 45.6H82.8609C83.4376 46.7496 83.7652 48.0505 83.7652 49.4496C83.7652 52.4041 82.3047 54.9202 80.121 56.5H88.5404Z" fill="black"/>
<path d="M70.76 45.6C71.7693 44.6883 73.1366 44.1284 74.6421 44.1284C76.1476 44.1284 77.5149 44.6883 78.5242 45.6C79.5969 46.569 80.2652 47.9355 80.2652 49.4496C80.2652 52.3884 77.7476 54.7708 74.6421 54.7708C71.5365 54.7708 69.019 52.3884 69.019 49.4496C69.019 47.9355 69.6873 46.569 70.76 45.6Z" fill="black"/>
<path d="M61.4505 105.76C59.3973 105.146 56.1308 105.108 51.2353 105.108C49.1091 105.108 47.4526 104.788 46.1622 104.254C45.0177 103.78 44.1612 103.138 43.5203 102.4C41.7343 100.344 41.6235 97.5458 41.6235 95.5932V52.3973C41.6235 48.2766 39.4343 45.9978 37.0434 45.6C36.5385 45.516 36.0247 45.5159 35.5205 45.6C33.153 45.9951 31 48.2481 31 52.3973V103.732C31 107.8 34.3077 115 46.2154 115C47.7177 115 49.1302 114.997 50.4516 114.983C57.5996 114.908 62.0831 114.495 63.7041 112.326C64.1587 111.717 64.3882 110.97 64.3882 110.054C64.3882 107.628 63.5591 106.39 61.4505 105.76Z" fill="black"/>
<path fill-rule="evenodd" clip-rule="evenodd" d="M74 3C34.737 3 3 34.95 3 74C3 92.8304 10.4803 110.889 23.7954 124.205C30.3884 130.798 38.2154 136.027 46.8295 139.595C55.4436 143.164 64.6761 145 74 145C92.8304 145 110.889 137.52 124.205 124.205C137.52 110.889 145 92.8304 145 74C145 64.6761 143.164 55.4436 139.595 46.8295C136.027 38.2154 130.798 30.3884 124.205 23.7954C117.612 17.2025 109.785 11.9726 101.171 8.40455C92.5564 4.83647 83.3239 3 74 3ZM120.5 102.4V90.5H132.5C133.636 85.956 134.346 78.899 134.346 74C134.346 69.101 133.636 61.044 132.5 56.5H116.242C118.426 54.9202 119.887 52.4041 119.887 49.4496C119.887 48.0505 119.559 46.7496 118.982 45.6H128C121.184 33.814 102.187 16.5 84.5 13.364C85.8243 15.814 87.815 18.9984 89.998 22.4904L90.0131 22.5146C90.3103 22.9901 90.6111 23.4712 90.9142 23.957C88.352 25.9609 86.5014 28.4296 85.3253 31.2035C81.6748 24.6628 77.3454 18.2008 74 13.364C68.107 21.884 60.297 35.447 57.386 45.6H66.4233C65.8465 46.7496 65.519 48.0505 65.519 49.4496C65.519 52.4041 66.9794 54.9202 69.1631 56.5H55.54C54.83 61.115 54.404 69.172 54.404 74C54.404 78.828 54.83 85.814 55.54 90.5H65.2077V102.4H62.431C61.012 101.979 59.377 101.802 57.6612 101.712C55.8554 101.617 53.7006 101.608 51.2353 101.608C47.4317 101.608 46.3309 100.426 45.9037 99.7573C45.2639 98.7559 45.1235 97.3329 45.1235 95.5932V52.3973C45.1235 49.7186 44.3716 47.3765 43.0952 45.6H45.6C47.4075 39.1445 53.2731 29.1945 57.9763 21.2162C59.7391 18.2259 61.3386 15.5125 62.5 13.364C44 16.5 27.745 33.814 21 45.6H29.5004C28.2392 47.3757 27.5 49.7172 27.5 52.3973V56.5H18C16.864 61.044 15.5 69.101 15.5 74C15.5 78.899 16.21 85.956 17.346 90.5H27.5V102.4H21C27.745 114.115 44.5 130.516 59.5 133C57.4196 129.151 54.6488 123.88 52.0686 118.461C55.3722 118.395 58.234 118.218 60.4828 117.749C62.0607 117.419 63.7107 116.878 65.0732 115.852C67.5801 122.038 70.6011 128.086 74 133C76.9649 128.713 79.6422 123.564 81.9416 118.213H96.7827C94.5671 123.719 92.1121 129.093 90 133C105.95 128.5 121.184 114.115 128 102.4H120.5Z" fill="black"/>
</svg>
