<svg width="148" height="148" viewBox="0 0 148 148" fill="none" xmlns="http://www.w3.org/2000/svg">
<path d="M54.6667 94C57.8117 94 60.3333 91.5354 60.3333 88.4615V69.0769H63.2308C64.7602 69.0769 66 67.8371 66 66.3077C66 64.7783 64.7602 63.5385 63.2308 63.5385H17.7692C16.2398 63.5385 15 64.7783 15 66.3077C15 67.8371 16.2398 69.0769 17.7692 69.0769H20.6667V88.4615C20.6667 91.5354 23.2167 94 26.3333 94H54.6667Z" fill="black"/>
<path d="M27.6722 40.1144C28.4909 39.9878 29.1667 40.6716 29.1667 41.5V42.6538C29.1667 43.4823 28.4837 44.1332 27.6828 44.345C25.541 44.9113 23.925 46.6862 23.925 49C23.925 51.8246 26.3333 54.5385 29.1667 54.5385H33.5017C36.3081 54.5385 38.8945 55.6136 40.7108 57.3635C41.538 58.1604 40.8628 59.3846 39.7143 59.3846H36.9836C36.7077 59.3846 36.4393 59.304 36.1935 59.1788C35.3758 58.7622 34.4601 58.5538 33.5017 58.5538H29.1667C23.925 58.5538 19.675 54.4 19.675 49.2769C19.675 44.6508 23.1404 40.815 27.6722 40.1144Z" fill="black"/>
<path d="M42.6756 42.8605C42.9291 42.0719 43.5799 41.3846 44.4083 41.3846H45.6583C46.4868 41.3846 47.1715 42.0608 47.0355 42.878C46.7066 44.8538 45.7348 46.6197 44.325 47.9754C48.3573 49.8602 51.3933 53.3679 52.6308 57.6568C52.8879 58.548 52.1783 59.3846 51.2508 59.3846H49.8922C49.1889 59.3846 48.5903 58.8914 48.3637 58.2256C47.0201 54.2769 43.4982 51.3167 39.1627 50.7572C38.3411 50.6512 37.6667 49.99 37.6667 49.1615V48.0077C37.6667 47.1793 38.3522 46.5279 39.1456 46.2897C40.8081 45.7904 42.1544 44.4815 42.6756 42.8605Z" fill="black"/>
<path fill-rule="evenodd" clip-rule="evenodd" d="M117.082 15.5967C129.8 17.6614 139.893 24.7327 144.422 30.9819L144.429 30.9917C144.8 31.5037 145 32.1198 145 32.7521V120.75C145 123.148 142.296 124.558 140.303 123.224C126.571 114.036 112.832 113.103 101.546 115.625C90.1175 118.179 81.3994 124.232 77.8699 128.66C76.5785 130.28 74.0438 130.131 72.9486 128.373C67.8156 120.13 56.5068 117.064 43.0655 117.214C29.8682 117.361 15.8363 120.614 6.97669 123.578C5.03349 124.228 3 122.79 3 120.741V32.7474C3 31.8989 3.35935 31.09 3.98904 30.5212L4.00015 30.5112C16.89 18.8677 31.9379 16.4849 45.2942 18.1573C57.3667 19.6689 68.2035 24.4976 75.2387 28.9521C75.4454 28.7736 75.6522 28.5971 75.859 28.4225C76.106 28.2079 76.3628 27.9941 76.6293 27.7814C90.7814 16.1715 105.065 13.6455 117.082 15.5967ZM44.5462 24.1754C55.8889 25.5956 66.1207 30.2572 72.4894 34.3854V118.92C64.8239 112.827 53.722 111.029 42.9983 111.149C32.4908 111.266 21.6021 113.223 12.9053 115.503C10.9675 116.011 9.04255 114.569 9.04255 112.566V35.5241C9.04255 34.6462 9.42377 33.8078 10.1082 33.258C20.9089 24.581 33.2033 22.7551 44.5462 24.1754ZM100.233 109.705C91.986 111.548 84.832 115.07 79.6124 118.88C80.9889 116.336 83.2458 114.126 86.254 112.203C90.4044 109.55 95.7544 107.602 101.457 106.2C112.853 103.4 124.967 102.946 129.894 102.946C131.55 102.946 132.915 101.603 132.915 99.9464V33.1856C132.915 32.1847 132.416 31.2497 131.584 30.6928L131.57 30.6836C123.561 25.3212 115.897 22.3636 108.884 21.0732C111.394 21.0213 113.813 21.2094 116.118 21.5836C126.197 23.2201 134.18 28.4229 138.27 32.9894C138.728 33.501 138.957 34.1706 138.957 34.8574V110.246C138.957 112.527 136.498 113.989 134.412 113.065C122.255 107.679 110.357 107.442 100.233 109.705Z" fill="black"/>
</svg>
