<svg width="148" height="148" viewBox="0 0 148 148" fill="none" xmlns="http://www.w3.org/2000/svg">
<path fill-rule="evenodd" clip-rule="evenodd" d="M145 74C145 113.212 113.212 145 74.0001 145C34.7879 145 3 113.212 3 74C3 34.7878 34.7879 3 74.0001 3C113.212 3 145 34.7878 145 74ZM105.702 51.8046C108.28 51.3978 110.797 50.6641 113.191 49.621C113.531 49.4753 113.677 49.1839 113.677 49.1839C113.687 49.6208 113.55 50.0485 113.288 50.398C111.522 52.8263 109.431 54.9997 107.072 56.8569C107.017 56.8962 106.956 56.9368 106.891 56.9793C106.559 57.1992 106.149 57.4698 106.149 57.8768C106.476 64.2298 105.527 70.5838 103.358 76.5642C101.19 82.5445 97.8453 88.0299 93.5226 92.6969C87.5414 98.2959 80.1943 102.225 72.2169 104.092C64.2393 105.958 55.9114 105.697 48.0671 103.332C45.0205 102.484 42.0738 101.312 39.2771 99.8358C39.0234 99.6889 38.7 99.509 38.3645 99.3223C37.4793 98.8299 36.509 98.2902 36.509 98.1846C36.509 98.136 36.4873 98.0713 36.4657 98.0065C36.4226 97.877 36.3795 97.7475 36.509 97.7475H37.5774C42.0354 98.135 46.5246 97.5552 50.7381 96.0478C50.933 95.9773 51.1474 95.9011 51.3774 95.8194C53.8406 94.9442 58.0943 93.433 59.3824 91.4342H57.6828C54.8337 90.9045 52.1681 89.6531 49.9406 87.7997C47.7129 85.9462 45.9978 83.5526 44.959 80.8474C44.8133 80.2646 44.959 80.2646 45.3962 80.2646C47.4041 80.6196 49.4586 80.6196 51.4667 80.2646C50.7588 80.1576 50.0713 79.9448 49.4269 79.6333C46.7127 78.576 44.3311 76.8114 42.5292 74.5227C40.7272 72.2341 39.5709 69.5048 39.1801 66.6182C39.1085 66.0052 39.1085 65.3859 39.1801 64.7728C39.2285 64.4814 39.3742 64.4814 39.7628 64.4814C41.6904 65.4389 43.7843 66.016 45.9303 66.1812C45.2502 65.6529 44.6015 65.0854 43.9878 64.4814C41.5202 62.0198 39.9166 58.8249 39.4176 55.3753C38.9185 51.9258 39.5509 48.4074 41.2197 45.3474C41.511 44.9589 41.7052 44.9589 42.0938 45.3474C50.3219 54.5675 61.705 60.3716 74.0001 61.6162C74.2914 61.6647 74.2914 61.6162 74.2914 61.2277C73.8784 59.0292 73.8784 56.773 74.2914 54.5745C74.8438 52.2552 75.9239 50.0947 77.448 48.2612C78.8987 46.4741 80.7002 45.0031 82.7415 43.939C84.7535 42.8651 86.9728 42.2358 89.2491 42.0936C91.6035 41.9219 93.9651 42.3045 96.1451 43.2106C97.7923 43.8575 99.319 44.7768 100.661 45.9301C100.854 46.0903 101.025 46.2715 101.202 46.46C101.294 46.5573 101.388 46.6565 101.487 46.7557C101.581 46.8164 101.691 46.8486 101.803 46.8486C101.915 46.8486 102.024 46.8164 102.118 46.7557C105.346 45.9661 108.462 44.7751 111.394 43.2106C111.46 43.1722 111.536 43.152 111.613 43.152C111.689 43.152 111.765 43.1722 111.831 43.2106V43.5991C111.289 45.3665 110.415 47.0146 109.257 48.4555C109.163 48.5678 109.052 48.7032 108.929 48.8543C108.125 49.84 106.773 51.496 105.702 51.8046Z" fill="black"/>
</svg>
